<svg xmlns="http://www.w3.org/2000/svg" width="16" height="16" viewBox="0 0 16 16"><rect id="frame" width="16" height="16" fill="none"/><g fill="none" fill-rule="evenodd"><path fill="#9AA7B0" fill-opacity=".8" d="M7 1L3 5h4z"/><path fill="#9AA7B0" fill-opacity=".8" d="M8 1v5H3v9h10V1z"/><path fill="#231F20" fill-opacity=".7" d="M5 12h4v-1H5v1zm0-2h6V9H5v1zm0-2h6V7H5v1z"/><circle cx="12" cy="4" r="4" fill="#FFF" fill-opacity=".5" fill-rule="nonzero"/><circle cx="12.5" cy="3.5" r="3.5" fill="#FFF" fill-rule="nonzero"/><path fill="#40B6E0" d="M13 3.593V2h-1v2h.007L12 4.007l1.414 1.414.707-.707L13 3.593zM12.5 7a3.5 3.5 0 1 1 0-7 3.5 3.5 0 0 1 0 7z"/></g></svg>